<svg width="258" height="258" viewBox="0 0 258 258" fill="none" xmlns="http://www.w3.org/2000/svg">
<g clip-path="url(#clip0_3487_185)">
<mask id="mask0_3487_185" style="mask-type:luminance" maskUnits="userSpaceOnUse" x="0" y="0" width="258" height="258">
<path d="M198 0H60C26.8629 0 0 26.8629 0 60V198C0 231.137 26.8629 258 60 258H198C231.137 258 258 231.137 258 198V60C258 26.8629 231.137 0 198 0Z" fill="white"/>
</mask>
<g mask="url(#mask0_3487_185)">
<path d="M198 0H60C26.8629 0 0 26.8629 0 60V198C0 231.137 26.8629 258 60 258H198C231.137 258 258 231.137 258 198V60C258 26.8629 231.137 0 198 0Z" fill="white"/>
<path d="M259 -6H-12V268H259V-6Z" fill="url(#paint0_linear_3487_185)"/>
<path fill-rule="evenodd" clip-rule="evenodd" d="M49.6397 126.746C95.2643 106.932 125.637 93.7659 140.889 87.3784C184.298 69.2589 193.422 66.1304 199.289 66C200.592 66 203.46 66.2607 205.415 67.825C206.98 69.1285 207.371 70.8232 207.631 72.1267C207.892 73.4303 208.153 76.1678 207.892 78.2535C205.546 103.021 195.378 163.115 190.164 190.751C187.948 202.483 183.646 206.394 179.474 206.785C170.349 207.567 163.441 200.788 154.707 195.053C140.889 186.058 133.198 180.453 119.771 171.588C104.259 161.421 114.296 155.815 123.161 146.69C125.507 144.344 165.526 107.844 166.308 104.585C166.439 104.194 166.439 102.63 165.526 101.848C164.614 101.066 163.31 101.327 162.267 101.587C160.833 101.848 138.934 116.448 96.3072 145.257C90.0501 149.558 84.4448 151.644 79.3609 151.514C73.7556 151.383 63.0664 148.385 54.9843 145.778C45.2076 142.649 37.3862 140.955 38.038 135.48C38.4291 132.612 42.3397 129.744 49.6397 126.746Z" fill="white"/>
</g>
</g>
<defs>
<linearGradient id="paint0_linear_3487_185" x1="-22.2652" y1="-168.37" x2="300.109" y2="-154.849" gradientUnits="userSpaceOnUse">
<stop stop-color="#3F47E7"/>
<stop offset="1" stop-color="#3F63E7"/>
</linearGradient>
<clipPath id="clip0_3487_185">
<rect width="258" height="258" fill="white"/>
</clipPath>
</defs>
</svg>
