<svg width="258" height="258" viewBox="0 0 258 258" fill="none" xmlns="http://www.w3.org/2000/svg">
<g clip-path="url(#clip0_3487_194)">
<mask id="mask0_3487_194" style="mask-type:luminance" maskUnits="userSpaceOnUse" x="0" y="0" width="258" height="258">
<path d="M198 0H60C26.8629 0 0 26.8629 0 60V198C0 231.137 26.8629 258 60 258H198C231.137 258 258 231.137 258 198V60C258 26.8629 231.137 0 198 0Z" fill="white"/>
</mask>
<g mask="url(#mask0_3487_194)">
<path d="M198 0H60C26.8629 0 0 26.8629 0 60V198C0 231.137 26.8629 258 60 258H198C231.137 258 258 231.137 258 198V60C258 26.8629 231.137 0 198 0Z" fill="white"/>
<path d="M259 -6H-12V268H259V-6Z" fill="url(#paint0_linear_3487_194)"/>
<mask id="mask1_3487_194" style="mask-type:luminance" maskUnits="userSpaceOnUse" x="51" y="40" width="170" height="172">
<path d="M221 40H51V211.024H221V40Z" fill="white"/>
</mask>
<g mask="url(#mask1_3487_194)">
<path fill-rule="evenodd" clip-rule="evenodd" d="M62.5626 167.048L50.5488 210.859L95.4369 199.102C107.805 205.838 121.729 209.389 135.9 209.394H135.937C182.605 209.394 220.594 171.462 220.615 124.848C220.623 102.257 211.826 81.0145 195.837 65.0335C179.848 49.0525 158.588 40.2488 135.938 40.2373C89.2626 40.2373 51.2796 78.1626 51.26 124.78C51.2421 139.617 55.1406 154.196 62.5626 167.048ZM65.556 124.786C65.5698 86.0408 97.1413 54.5191 135.963 54.5191C145.209 54.4973 154.368 56.3074 162.909 59.8447C171.45 63.382 179.203 68.5762 185.721 75.1267C192.274 81.6415 197.469 89.3901 201.004 97.9238C204.539 106.457 206.345 115.607 206.315 124.842C206.3 163.589 174.729 195.114 135.937 195.114H135.91C123.278 195.107 110.892 191.721 100.089 185.318L97.5165 183.796L70.8787 190.772L77.9898 164.842L76.3153 162.183C69.267 150.982 65.5368 138.016 65.556 124.786Z" fill="white"/>
<path fill-rule="evenodd" clip-rule="evenodd" d="M114.775 89.4355C113.189 85.917 111.52 85.8457 110.013 85.7848L105.958 85.7354C104.547 85.7354 102.254 86.2641 100.316 88.3791C98.378 90.4941 92.9102 95.6058 92.9102 106.003C92.9102 116.4 100.492 126.446 101.549 127.857C102.605 129.269 116.185 151.285 137.692 159.755C155.563 166.794 159.2 165.394 163.081 165.042C166.961 164.691 175.599 159.931 177.361 154.996C179.123 150.062 179.124 145.834 178.595 144.95C178.067 144.066 176.656 143.541 174.539 142.483C172.421 141.426 162.021 136.314 160.082 135.608C158.142 134.902 156.733 134.552 155.32 136.667C153.908 138.782 149.858 143.539 148.624 144.95C147.389 146.36 146.156 146.537 144.039 145.481C141.921 144.425 135.108 142.192 127.024 134.993C120.735 129.392 116.489 122.474 115.253 120.361C114.017 118.247 115.122 117.102 116.183 116.049C117.133 115.102 118.298 113.581 119.358 112.348C120.418 111.114 120.767 110.233 121.471 108.825C122.176 107.417 121.825 106.18 121.295 105.123C120.766 104.067 116.655 93.6149 114.775 89.4355Z" fill="white"/>
</g>
</g>
</g>
<defs>
<linearGradient id="paint0_linear_3487_194" x1="-22.2652" y1="-168.37" x2="300.109" y2="-154.849" gradientUnits="userSpaceOnUse">
<stop stop-color="#4DE73F"/>
<stop offset="1" stop-color="#3FE78B"/>
</linearGradient>
<clipPath id="clip0_3487_194">
<rect width="258" height="258" fill="white"/>
</clipPath>
</defs>
</svg>
